<?xml version="1.0" standalone="no"?>
<!DOCTYPE svg PUBLIC "-//W3C//DTD SVG 20010904//EN"
 "http://www.w3.org/TR/2001/REC-SVG-20010904/DTD/svg10.dtd">
<svg version="1.0" xmlns="http://www.w3.org/2000/svg"
 width="422.000000pt" height="205.000000pt" viewBox="0 0 422.000000 205.000000"
 preserveAspectRatio="xMidYMid meet">

<g transform="translate(0.000000,205.000000) scale(0.100000,-0.100000)"
fill="#fff" stroke="none">
<path d="M3010 1620 l0 -310 50 0 50 0 0 310 0 310 -50 0 -50 0 0 -310z"/>
<path d="M442 1899 c-130 -25 -192 -125 -191 -307 1 -192 81 -291 237 -292
120 0 205 63 225 168 l7 32 -44 0 c-47 0 -60 -10 -70 -53 -9 -39 -59 -67 -119
-67 -98 0 -137 64 -136 224 0 151 42 217 137 220 64 1 98 -20 120 -75 20 -47
22 -49 61 -49 22 0 42 4 45 9 8 12 -19 86 -44 121 -39 54 -142 86 -228 69z"/>
<path d="M1568 1894 c-5 -4 -8 -137 -8 -296 l0 -288 116 0 c136 0 179 11 234
58 64 54 83 101 88 213 5 108 -3 144 -49 213 -22 32 -46 53 -87 73 -50 25 -70
28 -172 31 -63 2 -118 0 -122 -4z m260 -101 c57 -43 67 -67 70 -176 3 -90 0
-107 -20 -147 -31 -59 -73 -83 -152 -84 l-61 -1 -3 219 -2 219 71 -5 c48 -4
79 -12 97 -25z"/>
<path d="M881 1728 c-41 -20 -81 -67 -81 -95 0 -9 17 -13 50 -13 37 0 50 4 50
14 0 22 40 46 75 46 48 0 75 -25 75 -69 l0 -38 -79 -5 c-118 -7 -181 -57 -181
-143 0 -99 136 -161 228 -105 39 24 42 24 42 5 0 -11 12 -15 48 -15 l47 0 -3
153 c-1 83 -5 166 -7 183 -6 35 -46 78 -88 93 -47 18 -128 13 -176 -11z m169
-270 c-5 -48 -8 -55 -40 -71 -61 -31 -120 -8 -120 47 0 55 29 75 110 76 l56 0
-6 -52z"/>
<path d="M1410 1743 c-8 -3 -25 -15 -37 -26 l-23 -20 0 21 c0 19 -5 22 -45 22
l-45 0 0 -215 0 -215 45 0 45 0 0 138 c0 75 3 147 6 160 8 29 52 52 99 52 35
0 35 0 35 45 0 44 -1 45 -32 44 -18 0 -40 -3 -48 -6z"/>
<path d="M2210 1739 c-36 -14 -79 -58 -103 -104 -15 -30 -20 -59 -21 -117 0
-68 4 -82 30 -124 38 -63 97 -94 174 -94 32 0 73 6 91 14 32 13 88 63 78 69
-2 1 -14 10 -26 20 -21 18 -22 18 -53 -5 -23 -17 -45 -23 -81 -23 -41 0 -53 5
-79 31 -18 18 -32 42 -33 60 l-2 29 143 0 142 0 0 40 c0 92 -44 175 -106 201
-38 16 -117 17 -154 3z m138 -95 c12 -14 22 -38 22 -55 l0 -29 -89 0 c-50 0
-92 3 -94 8 -11 19 16 74 46 93 40 25 84 19 115 -17z"/>
<path d="M2652 1743 c-32 -6 -102 -76 -102 -101 0 -19 6 -22 41 -22 33 0 45 6
66 30 50 60 143 29 143 -47 l0 -33 -67 0 c-74 0 -134 -22 -167 -58 -27 -31
-33 -114 -12 -147 42 -64 147 -86 214 -45 39 24 42 24 42 5 0 -11 12 -15 48
-15 l47 0 -3 127 c-4 231 -13 262 -86 297 -32 15 -109 19 -164 9z m148 -276
c0 -32 -6 -49 -23 -65 -66 -62 -167 -17 -137 62 12 33 40 45 108 45 l52 1 0
-43z"/>
<path d="M3315 1732 c-124 -58 -153 -289 -48 -384 74 -67 231 -62 295 9 17 19
17 21 -6 42 l-24 23 -31 -23 c-22 -16 -45 -23 -81 -23 -43 -1 -54 3 -80 30
-18 18 -32 42 -33 60 l-2 29 144 0 143 0 -5 63 c-7 72 -37 134 -80 166 -39 29
-138 33 -192 8z m132 -72 c33 -20 50 -57 39 -85 -4 -12 -24 -15 -90 -15 -47 0
-87 4 -90 9 -11 18 18 73 48 92 39 24 53 24 93 -1z"/>
<path d="M3791 1724 c-30 -25 -31 -25 -31 -5 0 18 -6 21 -45 21 l-45 0 0 -215
0 -215 45 0 45 0 0 140 c0 80 5 149 11 163 14 30 48 47 94 47 35 0 35 0 35 45
l0 45 -39 0 c-28 0 -49 -8 -70 -26z"/>
<path d="M1454 1102 c-182 -47 -306 -117 -483 -274 -35 -31 -90 -71 -122 -88
-32 -17 -67 -44 -78 -59 -22 -30 -51 -129 -51 -171 0 -21 5 -17 29 25 76 131
171 173 461 205 137 15 370 30 480 31 76 1 89 3 65 10 -16 6 -114 11 -216 12
l-187 2 -6 44 c-3 24 -6 58 -7 75 -1 44 -9 19 -17 -55 l-7 -64 -130 -16 c-71
-9 -147 -20 -167 -24 -49 -9 -48 0 2 63 102 130 290 216 530 243 111 13 187 6
238 -20 46 -23 135 -116 190 -198 l43 -63 132 0 c251 0 655 -33 812 -66 58
-12 90 -13 189 -3 110 10 186 9 321 -8 91 -11 40 7 -91 32 -290 54 -794 94
-1201 95 l-132 0 -77 96 c-42 52 -87 102 -100 111 -49 32 -29 36 139 30 307
-12 447 -42 624 -137 51 -27 93 -48 93 -45 0 12 -136 94 -210 126 -179 77
-332 99 -710 105 -251 3 -294 2 -356 -14z"/>
<path d="M1680 729 c-235 -8 -631 -47 -647 -63 -2 -2 3 -9 12 -16 12 -10 47
-9 188 9 252 31 520 51 797 59 208 6 231 8 150 13 -118 8 -238 8 -500 -2z"/>
<path d="M2613 713 c-21 -8 -15 -58 9 -89 69 -89 160 -126 338 -138 l75 -5
-77 13 c-136 24 -204 54 -274 118 -76 70 -58 80 96 53 142 -25 200 -49 256
-106 63 -65 84 -77 84 -49 0 12 -25 46 -57 79 -56 56 -62 59 -148 79 -135 32
-281 54 -302 45z"/>
<path d="M3538 693 c7 -3 16 -2 19 1 4 3 -2 6 -13 5 -11 0 -14 -3 -6 -6z"/>
<path d="M3220 673 c-109 -9 -125 -28 -86 -107 38 -77 114 -133 206 -150 27
-5 21 -1 -23 18 -71 30 -83 39 -119 95 -35 56 -37 96 -5 105 12 3 102 6 199 6
233 0 260 -10 281 -105 3 -12 5 -6 6 13 2 54 -48 96 -129 110 -72 12 -260 21
-330 15z"/>
<path d="M2297 625 c-77 -29 -134 -92 -153 -169 -6 -26 0 -22 57 36 71 72 126
95 200 85 60 -8 144 -55 194 -108 25 -27 45 -46 45 -43 0 2 -11 26 -24 52 -28
55 -92 117 -141 138 -52 21 -135 26 -178 9z"/>
<path d="M584 610 c-32 -13 -64 -59 -64 -92 0 -47 28 -94 91 -152 143 -132
378 -188 849 -202 385 -11 987 23 1455 83 175 22 143 28 -47 9 -637 -65 -1422
-69 -1818 -10 -235 35 -393 113 -473 234 -33 49 -13 113 43 133 13 5 13 5 0 6
-8 0 -25 -4 -36 -9z"/>
<path d="M900 587 c-40 -20 -70 -91 -70 -167 0 -46 3 -61 10 -50 5 8 10 28 10
43 0 47 30 98 66 113 43 18 82 4 113 -41 29 -43 37 -39 21 9 -10 33 -70 96
-90 96 -4 0 -14 2 -22 5 -7 3 -24 -1 -38 -8z"/>
<path d="M3443 403 c20 -2 54 -2 75 0 20 2 3 4 -38 4 -41 0 -58 -2 -37 -4z"/>
<path d="M2878 323 c12 -2 30 -2 40 0 9 3 -1 5 -23 4 -22 0 -30 -2 -17 -4z"/>
<path d="M2455 309 c-218 -9 -917 -29 -1111 -30 -127 -1 -142 -3 -99 -11 28
-6 221 -11 430 -11 373 -1 666 12 1035 47 l135 13 -110 0 c-60 0 -186 -3 -280
-8z"/>
<path d="M3068 273 c7 -3 16 -2 19 1 4 3 -2 6 -13 5 -11 0 -14 -3 -6 -6z"/>
<path d="M3368 259 c-42 -11 -161 -35 -265 -54 -103 -19 -161 -32 -128 -29
139 13 434 72 475 95 21 12 6 10 -82 -12z"/>
</g>
</svg>
